# xmcd
#
# Track frame offsets: 
#        150
#        12872
#        33452
#        50177
#        75117
#        94697
#        122462
#        139145
#        161875
#        177705
#
# Disc length: 2593 seconds
#
# Revision: 1
# Processed by: cddbd v1.5.2PL0 Copyright (c) Steve Scherf et al.
# Submitted via: ExactAudioCopy v1.0b3
#
DISCID=7e0a1f0a
DTITLE=Various Artist - エルフ版 下級生 -Melody-
DYEAR=1998
DGENRE=Anime
TTITLE0=Melody
TTITLE1=茶山莉子 - 羽のない天使(Angel)
TTITLE2=内川藍維 - おやすみ
TTITLE3=安達まり - モーション
TTITLE4=そのざきみえ - DOUBLE STAR
TTITLE5=Luna
TTITLE6=三五美奈子 - 風になりたい
TTITLE7=Pure - Get Into Revolution!
TTITLE8=安達まり - 思い出は予感に似ている
TTITLE9=柳原みわ - for myself
EXTD=YEAR: 1998
EXTT0=
EXTT1=
EXTT2=
EXTT3=
EXTT4=
EXTT5=
EXTT6=
EXTT7=
EXTT8=
EXTT9=
PLAYORDER=
